<?xml version="1.0" standalone="no"?>
<!DOCTYPE svg PUBLIC "-//W3C//DTD SVG 20010904//EN"
 "http://www.w3.org/TR/2001/REC-SVG-20010904/DTD/svg10.dtd">
<svg version="1.0" xmlns="http://www.w3.org/2000/svg"
 width="5000.000000pt" height="3000.000000pt" viewBox="0 0 5000.000000 3000.000000"
 preserveAspectRatio="xMidYMid meet">

<g transform="translate(0.000000,3000.000000) scale(0.100000,-0.100000)"
fill="#000000" stroke="none">
<path d="M0 15000 l0 -15000 25000 0 25000 0 0 15000 0 15000 -25000 0 -25000
0 0 -15000z m19285 -2734 c-18 -15 -22 -24 -13 -22 9 1 23 8 32 15 8 7 20 10
26 6 6 -4 17 -2 24 4 14 11 86 -6 86 -21 0 -4 6 -8 13 -8 8 0 20 -18 27 -39 7
-22 19 -42 26 -45 8 -3 14 -18 14 -33 0 -15 11 -50 25 -77 14 -27 25 -67 25
-88 0 -27 4 -38 15 -38 12 0 15 -16 15 -80 0 -60 3 -80 13 -80 10 0 18 -43 32
-160 18 -158 30 -196 38 -122 2 20 2 2 -1 -40 -4 -73 -3 -78 16 -78 18 0 21
-9 27 -80 5 -58 11 -80 21 -80 10 0 14 -13 14 -43 0 -23 9 -60 20 -82 11 -22
20 -56 20 -77 0 -31 4 -38 20 -38 17 0 20 -7 20 -40 0 -22 5 -40 10 -40 6 0
10 -18 10 -40 0 -25 5 -40 13 -40 15 -1 47 -68 47 -102 0 -14 6 -31 14 -37 18
-15 66 -113 66 -134 0 -8 10 -24 23 -34 21 -18 35 -40 81 -128 12 -22 24 -41
29 -43 4 -2 7 -9 7 -15 0 -7 13 -25 28 -42 15 -16 34 -45 41 -63 8 -18 22 -37
32 -42 10 -6 23 -25 30 -44 7 -19 21 -37 31 -39 10 -3 18 -13 18 -23 0 -20 28
-54 44 -54 12 0 36 -45 36 -67 0 -9 14 -13 40 -13 39 0 40 -1 40 -35 0 -29 5
-37 25 -45 14 -5 25 -14 25 -19 0 -5 13 -14 29 -21 16 -6 32 -18 35 -26 3 -8
15 -14 26 -14 11 0 20 -6 20 -13 0 -8 18 -20 41 -27 32 -11 39 -18 35 -32 -3
-13 1 -18 12 -17 37 3 63 -2 57 -11 -3 -5 1 -10 10 -10 9 0 14 3 11 8 -2 4 14
7 37 7 23 0 58 4 77 9 19 4 32 6 29 2 -6 -6 -219 -53 -374 -82 -186 -35 -530
-94 -559 -95 -26 -2 -68 26 -271 181 -299 228 -686 518 -955 715 -232 169
-335 266 -420 396 -150 229 -143 410 26 635 65 87 258 285 448 460 72 65 137
126 146 134 9 8 56 51 105 95 49 44 96 87 105 95 43 40 94 80 103 80 6 0 -3
-11 -18 -24z"/>
<path d="M20748 9653 c7 -3 16 -2 19 1 4 3 -2 6 -13 5 -11 0 -14 -3 -6 -6z"/>
<path d="M20668 9633 c7 -3 16 -2 19 1 4 3 -2 6 -13 5 -11 0 -14 -3 -6 -6z"/>
</g>
</svg>
